<svg width="481" height="171" viewBox="0 0 481 171" fill="none" xmlns="http://www.w3.org/2000/svg">
<path d="M102.933 25.0333C97.4002 25.2005 91.6921 25.0333 86.1593 25.0333V56.0187C81.6261 52.1455 78.943 45.5787 78.943 34.9627V16.7764H28.613V34.9627C28.613 51.3005 21.7386 58.2018 12.5056 59.8831V94.0727C26.9295 94.0727 39.1788 90.8773 50.4197 85.4813C47.0615 83.1222 44.0452 80.5958 41.6953 77.9022L45.2201 74.8741C60.3191 90.8773 76.4177 94.0727 95.2082 94.0727V63.7563C97.7247 63.7563 100.241 63.589 102.924 63.589V114.785C115.84 115.63 143.013 111.925 154.762 107.039V16.7764H102.924V25.0333H102.933Z" fill="white"/>
<path d="M90.0177 120.014C72.7354 119.345 62.1696 112.602 62.1696 98.7998H13.5231C7.82375 143.429 36.1716 157.408 85.9931 157.408C112.666 157.408 135.148 155.216 154.772 149.829V112.611C137.998 119.345 111.158 120.692 90.0177 120.023V120.014Z" fill="white"/>
<path d="M211.291 96.0973C241.489 96.0973 257.588 81.4409 257.588 55.1737C257.588 28.9065 241.656 14.25 211.291 14.25C180.927 14.25 165.161 28.7304 165.161 55.1737C165.161 81.6169 181.269 96.0973 211.291 96.0973Z" fill="white"/>
<path d="M260.614 114.794C273.53 115.639 297.353 111.933 309.094 107.048V16.7852H260.614V114.803V114.794Z" fill="white"/>
<path d="M244.34 120.014C227.057 119.512 218.175 112.602 218.175 98.7998H169.528C163.82 143.429 190.493 157.408 240.315 157.408C270.338 157.408 289.47 155.216 309.093 149.829V112.611C292.32 119.345 268.838 120.692 244.34 120.023V120.014Z" fill="white"/>
<path d="M350.359 71.1769L353.884 68.1488C368.983 84.1433 385.09 87.3474 403.872 87.3474V59.9007C395.147 59.9007 388.939 55.693 387.764 49.2935H403.872V16.7939H321.169V49.2935H337.101C336.093 58.8972 329.718 63.2721 321.169 63.2721V94.0903C335.593 94.0903 353.542 90.8949 364.783 83.1398C358.908 79.0993 354.383 75.5606 350.359 71.1857V71.1769Z" fill="white"/>
<path d="M456.708 30.9223V16.7764H408.237V89.0288H456.708V70.6664H469.457V30.9223H456.708Z" fill="white"/>
<path d="M390.113 91.3877C341.633 91.3877 320.16 100.648 320.16 124.398C320.16 148.147 341.633 157.408 390.113 157.408C438.593 157.408 460.067 148.147 460.067 124.398C460.067 100.648 438.593 91.3877 390.113 91.3877ZM413.428 128.271C398.662 129.107 380.889 126.924 367.631 120.692L369.815 115.806C382.564 121.695 399.504 124.222 413.428 123.385V128.271Z" fill="white"/>
<path d="M195.482 45.8516C193.825 45.8516 192.475 44.5048 192.475 42.8322V36.2478C192.475 34.5841 193.816 33.2285 195.482 33.2285C197.148 33.2285 198.49 34.5753 198.49 36.2478V42.8322C198.49 44.496 197.148 45.8516 195.482 45.8516Z" fill="#00C064"/>
<path d="M207.118 45.8516C205.46 45.8516 204.11 44.5048 204.11 42.8322V36.2478C204.11 34.5841 205.452 33.2285 207.118 33.2285C208.784 33.2285 210.125 34.5753 210.125 36.2478V42.8322C210.125 44.496 208.784 45.8516 207.118 45.8516Z" fill="#00C064"/>
<path d="M232.44 22.8411C231.361 22.1369 231.063 20.6845 231.765 19.6018L234.544 15.3237C235.246 14.2409 236.693 13.9328 237.771 14.6459C238.85 15.3589 239.148 16.8025 238.446 17.8853L235.667 22.1634C234.965 23.2461 233.518 23.5542 232.44 22.8411Z" fill="white"/>
<path d="M227.855 22.269C226.575 22.0929 225.689 20.9133 225.865 19.637L226.549 14.5754C226.724 13.299 227.899 12.4012 229.17 12.5772C230.442 12.7533 231.336 13.9328 231.161 15.2092L230.477 20.2708C230.301 21.5471 229.126 22.445 227.855 22.269Z" fill="white"/>
</svg>
